<?xml version="1.0" standalone="no"?><svg xmlns="http://www.w3.org/2000/svg" viewBox="0 0 1440 320"><path fill="#0099ff" fill-opacity="1" d="M0,160L20,170.7C40,181,80,203,120,213.3C160,224,200,224,240,208C280,192,320,160,360,170.7C400,181,440,235,480,240C520,245,560,203,600,202.7C640,203,680,245,720,245.3C760,245,800,203,840,202.7C880,203,920,245,960,240C1000,235,1040,181,1080,154.7C1120,128,1160,128,1200,154.7C1240,181,1280,235,1320,213.3C1360,192,1400,96,1420,48L1440,0L1440,0L1420,0C1400,0,1360,0,1320,0C1280,0,1240,0,1200,0C1160,0,1120,0,1080,0C1040,0,1000,0,960,0C920,0,880,0,840,0C800,0,760,0,720,0C680,0,640,0,600,0C560,0,520,0,480,0C440,0,400,0,360,0C320,0,280,0,240,0C200,0,160,0,120,0C80,0,40,0,20,0L0,0Z"></path></svg>